<svg width="20" height="20" viewBox="0 0 20 20" fill="none" xmlns="http://www.w3.org/2000/svg">
<path fill-rule="evenodd" clip-rule="evenodd" d="M12.0177 0.11282L12.0003 0.1106L11.9829 0.10868C10.6617 -0.0362302 9.33888 -0.0362198 8.01723 0.10867L7.99924 0.11064L7.98137 0.11295C7.04218 0.23375 6.23257 0.69356 5.66491 1.19208C5.0973 1.69053 4.5732 2.40188 4.43609 3.2276L4.43354 3.24293L4.43137 3.25829C4.26639 4.41913 4.26638 5.581 4.43138 6.7414L4.43356 6.7567L4.43609 6.772C4.57319 7.5976 5.09717 8.3091 5.66479 8.8076C5.74836 8.881 5.83716 8.9536 5.93086 9.0244C5.29181 9.1106 4.65285 9.2171 4.01403 9.3439L4.00252 9.3462C3.10127 9.5367 2.27961 10.0665 1.66651 10.6851C1.0502 11.3069 0.565229 12.0977 0.420563 12.9056L0.419004 12.9146C0.257136 13.8965 0.136139 14.876 0.0414519 15.8519L0 16.2791L0.398056 16.5272C3.14745 18.241 6.44619 19.25 9.99999 19.25C13.5546 19.25 16.8534 18.2411 19.6021 16.5271L20 16.279L19.9586 15.8519C19.8638 14.876 19.7428 13.8965 19.581 12.9146L19.5794 12.9056C19.4347 12.0977 18.9498 11.3069 18.3335 10.6851C17.7204 10.0665 16.8987 9.5367 15.9975 9.3462L15.986 9.3439C15.3472 9.2171 14.7081 9.1106 14.0691 9.0244C14.1628 8.9536 14.2516 8.881 14.3352 8.8076C14.9028 8.3091 15.4269 7.5976 15.5639 6.772L15.5664 6.7567L15.5686 6.7414C15.7336 5.581 15.7336 4.41913 15.5686 3.25829L15.5664 3.24293L15.5639 3.2276C15.4269 2.40199 14.9028 1.69054 14.3352 1.19199C13.7675 0.69342 12.9576 0.23323 12.0177 0.11282ZM8.22876 1.59712C7.27639 1.71962 6.26482 2.60761 6.12592 3.44409C5.97849 4.48157 5.97849 5.5186 6.12592 6.5555C6.26482 7.392 7.27639 8.2805 8.22876 8.4025C9.40992 8.5325 10.5906 8.5325 11.7712 8.4025C12.7236 8.2805 13.7352 7.392 13.8741 6.5555C14.0215 5.5186 14.0215 4.48157 13.8741 3.44409C13.7352 2.60761 12.7236 1.71912 11.7712 1.59712C10.5906 1.46763 9.40992 1.46763 8.22876 1.59712ZM2.95449 11.67C3.4127 11.2077 3.94357 10.903 4.39684 10.8057C8.13358 10.0648 11.8664 10.0648 15.6032 10.8057C16.0564 10.903 16.5873 11.2077 17.0455 11.67C17.5009 12.1294 17.8067 12.6669 17.8917 13.1344C18.0237 13.9362 18.1281 14.7397 18.2132 15.5456C15.8192 16.9429 13.0087 17.75 9.99999 17.75C6.9921 17.75 4.18165 16.9429 1.78687 15.5455C1.87184 14.7396 1.97623 13.9362 2.10828 13.1345C2.19325 12.6669 2.4991 12.1294 2.95449 11.67Z" fill="white"/>
</svg>
