<svg width="227" height="69" viewBox="0 0 227 69" fill="none" xmlns="http://www.w3.org/2000/svg">
<path d="M69 33.3355C69 49.1821 57.3116 62.3498 42.1035 64.6716C42.2318 63.9683 42.2678 63.2399 42.1814 62.5019C42.1814 62.5019 42.0906 61.7253 41.9717 60.7089C47.3712 59.789 52.2461 57.3115 56.11 53.7484C55.878 53.5555 55.647 53.3053 55.4193 52.9732C54.3931 51.4758 55.735 49.99 55.735 48.6806C55.735 47.3962 53.1455 47.5019 53.0507 46.6512C52.7235 43.7052 54.8586 43.665 55.9969 42.5268C57.1352 41.3885 54.8718 38.8006 53.4098 38.9676C51.9379 39.1248 47.7949 38.2879 48.1735 35.118C48.6347 31.2573 43.2548 31.5979 42.4844 29.7959C41.3613 27.1693 43.2283 23.9475 45.6633 23.2155C49.1124 22.1789 52.5102 19.3651 52.2448 16.2328C51.9441 12.6853 50.3384 9.4859 47.6938 7.58536C44.9417 6.47042 41.9741 5.78099 38.8693 5.60702C36.0984 5.71661 33.6622 6.33242 33.7733 7.60103C34.0459 10.7099 42.8863 11.5173 41.4028 14.4235C40.6294 15.9384 34.8248 18.0766 35.9089 20.3313C36.614 21.7976 38.3492 20.5409 37.7014 23.3558C37.4033 24.651 36.2676 27.0846 34.5211 27.2417C32.7351 27.4084 31.2479 22.677 26.3865 22.5218C24.0883 22.4483 20.8506 26.1076 23.5998 28.7036C25.2646 30.2758 28.3886 26.8141 29.3107 29.5182C29.9604 31.4237 29.2232 35.4266 32.2557 37.0995C33.3612 37.7094 35.0558 38.241 36.7319 39.0926C34.2442 39.6007 31.1874 40.5486 27.5779 41.939L24.5367 41.1366C25.8098 40.0768 27.8784 39.3308 27.3579 37.015C26.5934 33.6127 20.6859 34.8958 16.6132 30.8232C15.3638 29.574 12.6988 25.4258 12.7097 20.442C10.6797 24.2981 9.52425 28.6835 9.52425 33.3357C9.52425 34.7676 9.6335 36.1747 9.84354 37.5489C9.79563 37.5482 9.74827 37.5398 9.70047 37.5398C8.41788 37.5398 7.15998 37.8093 5.9942 38.3188C5.73669 36.6947 5.59925 35.0312 5.59925 33.3358C5.59925 15.8563 19.8201 1.63501 37.2995 1.63501C54.7791 1.63478 69 15.8561 69 33.3355ZM45.2208 42.5752L37.4786 46.134L37.5987 44.447L42.6143 42.1829C41.8989 42.1317 41.1577 42.1122 40.4176 42.1122C37.6465 42.1122 32.9645 43.515 27.7861 45.5704L11.178 41.1897C9.62594 40.7802 7.97355 41.0324 6.61418 41.8865L5.79757 42.3995C5.00035 42.9003 4.99189 44.0593 5.78167 44.5718L15.7651 51.0488C13.3802 52.2685 11.1176 53.5072 9.12288 54.6903L3.99996 51.9781C3.16317 51.5351 2.17383 51.4825 1.29498 51.8345L0.810067 52.0289C0.0869196 52.3183 -0.216027 53.1783 0.166179 53.8572L2.9883 58.8712L2.98954 58.8707C1.92478 59.7868 1.31798 60.5465 1.31798 61.0722C1.31798 62.6457 3.25427 63.0389 4.961 63.0389C8.00512 63.0389 48.2063 53.8343 48.2063 45.4952C48.2061 43.8437 47.0766 43.0178 45.2208 42.5752ZM28.2709 58.8566L37.1173 55.7404C37.5069 55.603 37.9233 55.8628 37.9713 56.2732L38.7469 62.9043C38.9407 64.5613 38.0494 66.1559 36.5366 66.8592L35.7069 67.2448C35.1888 67.4856 34.5741 67.3565 34.1965 66.9277L28.0014 59.8902C27.6998 59.5474 27.8403 59.0084 28.2709 58.8566Z" fill="white"/>
<path d="M94.96 16.4V29H92.62V23.6H86.104V29H83.764V16.4H86.104V21.602H92.62V16.4H94.96ZM102.778 27.218C103.822 27.218 104.692 26.87 105.388 26.174L106.576 27.56C106.156 28.076 105.616 28.466 104.956 28.73C104.296 28.994 103.552 29.126 102.724 29.126C101.668 29.126 100.738 28.916 99.9345 28.496C99.1305 28.076 98.5065 27.494 98.0625 26.75C97.6305 25.994 97.4145 25.142 97.4145 24.194C97.4145 23.258 97.6245 22.418 98.0445 21.674C98.4765 20.918 99.0645 20.33 99.8085 19.91C100.564 19.49 101.416 19.28 102.364 19.28C103.264 19.28 104.08 19.478 104.812 19.874C105.556 20.258 106.144 20.816 106.576 21.548C107.008 22.268 107.224 23.114 107.224 24.086L99.8625 25.526C100.09 26.078 100.456 26.498 100.96 26.786C101.464 27.074 102.07 27.218 102.778 27.218ZM102.364 21.08C101.536 21.08 100.864 21.35 100.348 21.89C99.8445 22.43 99.5925 23.156 99.5925 24.068V24.086L105.028 23.042C104.872 22.454 104.554 21.98 104.074 21.62C103.606 21.26 103.036 21.08 102.364 21.08ZM114.988 23.996C115.588 24.164 116.05 24.44 116.374 24.824C116.71 25.196 116.878 25.646 116.878 26.174C116.878 26.762 116.68 27.284 116.284 27.74C115.888 28.184 115.342 28.532 114.646 28.784C113.95 29.036 113.158 29.162 112.27 29.162C111.526 29.162 110.8 29.078 110.092 28.91C109.384 28.73 108.742 28.478 108.166 28.154L108.814 26.48C109.282 26.744 109.81 26.948 110.398 27.092C110.986 27.236 111.574 27.308 112.162 27.308C112.918 27.308 113.506 27.194 113.926 26.966C114.358 26.726 114.574 26.402 114.574 25.994C114.574 25.622 114.406 25.334 114.07 25.13C113.746 24.926 113.284 24.824 112.684 24.824H110.812V23.312H112.504C113.068 23.312 113.506 23.216 113.818 23.024C114.142 22.832 114.304 22.562 114.304 22.214C114.304 21.866 114.112 21.59 113.728 21.386C113.344 21.182 112.816 21.08 112.144 21.08C111.184 21.08 110.17 21.314 109.102 21.782L108.526 20.126C109.786 19.538 111.058 19.244 112.342 19.244C113.158 19.244 113.89 19.358 114.538 19.586C115.186 19.802 115.69 20.114 116.05 20.522C116.422 20.918 116.608 21.374 116.608 21.89C116.608 22.358 116.464 22.778 116.176 23.15C115.888 23.51 115.492 23.792 114.988 23.996ZM128.573 19.388V29H126.431V27.758C126.059 28.214 125.597 28.556 125.045 28.784C124.505 29.012 123.905 29.126 123.245 29.126C122.309 29.126 121.469 28.922 120.725 28.514C119.993 28.106 119.417 27.53 118.997 26.786C118.589 26.042 118.385 25.178 118.385 24.194C118.385 23.21 118.589 22.352 118.997 21.62C119.417 20.876 119.993 20.3 120.725 19.892C121.469 19.484 122.309 19.28 123.245 19.28C123.869 19.28 124.439 19.388 124.955 19.604C125.483 19.82 125.939 20.138 126.323 20.558V19.388H128.573ZM123.497 27.2C124.325 27.2 125.009 26.924 125.549 26.372C126.089 25.82 126.359 25.094 126.359 24.194C126.359 23.294 126.089 22.568 125.549 22.016C125.009 21.464 124.325 21.188 123.497 21.188C122.669 21.188 121.985 21.464 121.445 22.016C120.917 22.568 120.653 23.294 120.653 24.194C120.653 25.094 120.917 25.82 121.445 26.372C121.985 26.924 122.669 27.2 123.497 27.2ZM136.755 19.856C137.667 19.856 138.471 20.054 139.167 20.45C139.863 20.834 140.403 21.374 140.787 22.07C141.183 22.766 141.381 23.564 141.381 24.464C141.381 25.388 141.165 26.21 140.733 26.93C140.301 27.638 139.695 28.19 138.915 28.586C138.135 28.982 137.247 29.18 136.251 29.18C134.583 29.18 133.293 28.628 132.381 27.524C131.469 26.42 131.013 24.83 131.013 22.754C131.013 20.822 131.427 19.292 132.255 18.164C133.083 17.036 134.349 16.292 136.053 15.932L140.517 14.978L140.841 16.994L136.791 17.822C135.627 18.062 134.757 18.47 134.181 19.046C133.605 19.622 133.269 20.432 133.173 21.476C133.605 20.96 134.127 20.564 134.739 20.288C135.351 20 136.023 19.856 136.755 19.856ZM136.305 27.362C137.133 27.362 137.799 27.098 138.303 26.57C138.819 26.03 139.077 25.346 139.077 24.518C139.077 23.69 138.819 23.024 138.303 22.52C137.799 22.016 137.133 21.764 136.305 21.764C135.465 21.764 134.787 22.016 134.271 22.52C133.755 23.024 133.497 23.69 133.497 24.518C133.497 25.358 133.755 26.042 134.271 26.57C134.799 27.098 135.477 27.362 136.305 27.362ZM152.829 19.388V27.542C152.829 30.926 151.167 32.618 147.843 32.618C146.967 32.618 146.127 32.498 145.323 32.258C144.531 32.03 143.877 31.694 143.361 31.25L144.369 29.558C144.777 29.906 145.275 30.182 145.863 30.386C146.451 30.59 147.069 30.692 147.717 30.692C148.701 30.692 149.421 30.452 149.877 29.972C150.345 29.504 150.579 28.778 150.579 27.794V27.344C150.219 27.74 149.781 28.046 149.265 28.262C148.749 28.466 148.191 28.568 147.591 28.568C146.307 28.568 145.293 28.214 144.549 27.506C143.817 26.798 143.451 25.736 143.451 24.32V19.388H145.701V24.032C145.701 24.884 145.893 25.526 146.277 25.958C146.673 26.378 147.231 26.588 147.951 26.588C148.755 26.588 149.391 26.342 149.859 25.85C150.339 25.358 150.579 24.644 150.579 23.708V19.388H152.829ZM167.943 19.28C169.155 19.28 170.115 19.634 170.823 20.342C171.531 21.038 171.885 22.088 171.885 23.492V29H169.635V23.78C169.635 22.94 169.449 22.31 169.077 21.89C168.705 21.458 168.171 21.242 167.475 21.242C166.719 21.242 166.113 21.494 165.657 21.998C165.201 22.49 164.973 23.198 164.973 24.122V29H162.723V23.78C162.723 22.94 162.537 22.31 162.165 21.89C161.793 21.458 161.259 21.242 160.563 21.242C159.795 21.242 159.183 21.488 158.727 21.98C158.283 22.472 158.061 23.186 158.061 24.122V29H155.811V19.388H157.953V20.612C158.313 20.18 158.763 19.85 159.303 19.622C159.843 19.394 160.443 19.28 161.103 19.28C161.823 19.28 162.459 19.418 163.011 19.694C163.575 19.958 164.019 20.354 164.343 20.882C164.739 20.378 165.249 19.988 165.873 19.712C166.497 19.424 167.187 19.28 167.943 19.28ZM174.655 19.388H176.905V23.294H181.747V19.388H183.997V29H181.747V25.202H176.905V29H174.655V19.388ZM187.012 19.388H189.262V29H187.012V19.388ZM188.146 17.804C187.738 17.804 187.396 17.678 187.12 17.426C186.844 17.162 186.706 16.838 186.706 16.454C186.706 16.07 186.844 15.752 187.12 15.5C187.396 15.236 187.738 15.104 188.146 15.104C188.554 15.104 188.896 15.23 189.172 15.482C189.448 15.722 189.586 16.028 189.586 16.4C189.586 16.796 189.448 17.132 189.172 17.408C188.908 17.672 188.566 17.804 188.146 17.804ZM92.728 41.388V51H90.496V43.296H85.762V51H83.512V41.388H92.728ZM100.048 51.126C99.076 51.126 98.2 50.916 97.42 50.496C96.64 50.076 96.028 49.494 95.584 48.75C95.152 47.994 94.936 47.142 94.936 46.194C94.936 45.246 95.152 44.4 95.584 43.656C96.028 42.912 96.64 42.33 97.42 41.91C98.2 41.49 99.076 41.28 100.048 41.28C101.032 41.28 101.914 41.49 102.694 41.91C103.474 42.33 104.08 42.912 104.512 43.656C104.956 44.4 105.178 45.246 105.178 46.194C105.178 47.142 104.956 47.994 104.512 48.75C104.08 49.494 103.474 50.076 102.694 50.496C101.914 50.916 101.032 51.126 100.048 51.126ZM100.048 49.2C100.876 49.2 101.56 48.924 102.1 48.372C102.64 47.82 102.91 47.094 102.91 46.194C102.91 45.294 102.64 44.568 102.1 44.016C101.56 43.464 100.876 43.188 100.048 43.188C99.22 43.188 98.536 43.464 97.996 44.016C97.468 44.568 97.204 45.294 97.204 46.194C97.204 47.094 97.468 47.82 97.996 48.372C98.536 48.924 99.22 49.2 100.048 49.2ZM116.869 41.388V49.542C116.869 52.926 115.141 54.618 111.685 54.618C110.761 54.618 109.885 54.498 109.057 54.258C108.229 54.03 107.545 53.694 107.005 53.25L108.013 51.558C108.433 51.906 108.961 52.182 109.597 52.386C110.245 52.602 110.899 52.71 111.559 52.71C112.615 52.71 113.389 52.47 113.881 51.99C114.373 51.51 114.619 50.778 114.619 49.794V49.29C114.235 49.71 113.767 50.028 113.215 50.244C112.663 50.46 112.057 50.568 111.397 50.568C110.485 50.568 109.657 50.376 108.913 49.992C108.181 49.596 107.599 49.044 107.167 48.336C106.747 47.628 106.537 46.818 106.537 45.906C106.537 44.994 106.747 44.19 107.167 43.494C107.599 42.786 108.181 42.24 108.913 41.856C109.657 41.472 110.485 41.28 111.397 41.28C112.093 41.28 112.723 41.394 113.287 41.622C113.863 41.85 114.343 42.198 114.727 42.666V41.388H116.869ZM111.739 48.66C112.591 48.66 113.287 48.408 113.827 47.904C114.379 47.388 114.655 46.722 114.655 45.906C114.655 45.102 114.379 44.448 113.827 43.944C113.287 43.44 112.591 43.188 111.739 43.188C110.875 43.188 110.167 43.44 109.615 43.944C109.075 44.448 108.805 45.102 108.805 45.906C108.805 46.722 109.075 47.388 109.615 47.904C110.167 48.408 110.875 48.66 111.739 48.66ZM124.183 51.126C123.211 51.126 122.335 50.916 121.555 50.496C120.775 50.076 120.163 49.494 119.719 48.75C119.287 47.994 119.071 47.142 119.071 46.194C119.071 45.246 119.287 44.4 119.719 43.656C120.163 42.912 120.775 42.33 121.555 41.91C122.335 41.49 123.211 41.28 124.183 41.28C125.167 41.28 126.049 41.49 126.829 41.91C127.609 42.33 128.215 42.912 128.647 43.656C129.091 44.4 129.313 45.246 129.313 46.194C129.313 47.142 129.091 47.994 128.647 48.75C128.215 49.494 127.609 50.076 126.829 50.496C126.049 50.916 125.167 51.126 124.183 51.126ZM124.183 49.2C125.011 49.2 125.695 48.924 126.235 48.372C126.775 47.82 127.045 47.094 127.045 46.194C127.045 45.294 126.775 44.568 126.235 44.016C125.695 43.464 125.011 43.188 124.183 43.188C123.355 43.188 122.671 43.464 122.131 44.016C121.603 44.568 121.339 45.294 121.339 46.194C121.339 47.094 121.603 47.82 122.131 48.372C122.671 48.924 123.355 49.2 124.183 49.2ZM136.287 41.28C137.283 41.28 138.153 41.484 138.897 41.892C139.653 42.3 140.235 42.876 140.643 43.62C141.063 44.364 141.273 45.228 141.273 46.212C141.273 47.184 141.075 48.042 140.679 48.786C140.283 49.53 139.725 50.106 139.005 50.514C138.297 50.922 137.475 51.126 136.539 51.126C135.207 51.126 134.163 50.7 133.407 49.848V54.492H131.139V46.23C131.139 45.258 131.355 44.4 131.787 43.656C132.219 42.9 132.819 42.318 133.587 41.91C134.367 41.49 135.267 41.28 136.287 41.28ZM136.197 49.218C137.037 49.218 137.721 48.942 138.249 48.39C138.777 47.826 139.041 47.1 139.041 46.212C139.041 45.324 138.777 44.598 138.249 44.034C137.721 43.47 137.037 43.188 136.197 43.188C135.345 43.188 134.661 43.464 134.145 44.016C133.629 44.568 133.371 45.294 133.371 46.194C133.371 47.094 133.629 47.826 134.145 48.39C134.673 48.942 135.357 49.218 136.197 49.218ZM147.808 51.126C146.836 51.126 145.96 50.916 145.18 50.496C144.4 50.076 143.788 49.494 143.344 48.75C142.912 47.994 142.696 47.142 142.696 46.194C142.696 45.246 142.912 44.4 143.344 43.656C143.788 42.912 144.4 42.33 145.18 41.91C145.96 41.49 146.836 41.28 147.808 41.28C148.792 41.28 149.674 41.49 150.454 41.91C151.234 42.33 151.84 42.912 152.272 43.656C152.716 44.4 152.938 45.246 152.938 46.194C152.938 47.142 152.716 47.994 152.272 48.75C151.84 49.494 151.234 50.076 150.454 50.496C149.674 50.916 148.792 51.126 147.808 51.126ZM147.808 49.2C148.636 49.2 149.32 48.924 149.86 48.372C150.4 47.82 150.67 47.094 150.67 46.194C150.67 45.294 150.4 44.568 149.86 44.016C149.32 43.464 148.636 43.188 147.808 43.188C146.98 43.188 146.296 43.464 145.756 44.016C145.228 44.568 144.964 45.294 144.964 46.194C144.964 47.094 145.228 47.82 145.756 48.372C146.296 48.924 146.98 49.2 147.808 49.2ZM163.97 47.148H162.35V51H160.118V47.148H158.498L156.158 51H153.494L156.644 46.032L153.728 41.388H156.122L158.462 45.276H160.118V41.388H162.35V45.276H163.988L166.346 41.388H168.74L165.824 46.032L168.992 51H166.31L163.97 47.148ZM170.664 41.388H172.914V51H170.664V41.388ZM171.798 39.804C171.39 39.804 171.048 39.678 170.772 39.426C170.496 39.162 170.358 38.838 170.358 38.454C170.358 38.07 170.496 37.752 170.772 37.5C171.048 37.236 171.39 37.104 171.798 37.104C172.206 37.104 172.548 37.23 172.824 37.482C173.1 37.722 173.238 38.028 173.238 38.4C173.238 38.796 173.1 39.132 172.824 39.408C172.56 39.672 172.218 39.804 171.798 39.804Z" fill="white"/>
</svg>
